PathFileType	4	(X/Y/Z)	/home/nbianco/projects/addbio/data/HamnerRunning2013/Processed/subject08//results/MarkerData/run300.trc
DataRate	CameraRate	NumFrames	NumMarkers	Units	OrigDataRate	OrigDataStartFrame	OrigNumFrames
100	100	9	42	m	100	25	200
Frame#	Time	C7			CLAV			LACR			LASI			LCAL			LFAradius			LFAsuperior			LFAulna			LLEL			LMEL			LMT5			LPSI			LTB1			LTB2			LTB3			LTH1			LTH2			LTH3			LTOE			LUA1			LUA2			LUA3			RACR			RASI			RCAL			RFAradius			RFAsuperior			RFAulna			RLEL			RMEL			RMT5			RPSI			RTB1			RTB2			RTB3			RTH1			RTH2			RTH3			RTOE			RUA1			RUA2			RUA3		
		X1	Y1	Z1	X2	Y2	Z2	X3	Y3	Z3	X4	Y4	Z4	X5	Y5	Z5	X6	Y6	Z6	X7	Y7	Z7	X8	Y8	Z8	X9	Y9	Z9	X10	Y10	Z10	X11	Y11	Z11	X12	Y12	Z12	X13	Y13	Z13	X14	Y14	Z14	X15	Y15	Z15	X16	Y16	Z16	X17	Y17	Z17	X18	Y18	Z18	X19	Y19	Z19	X20	Y20	Z20	X21	Y21	Z21	X22	Y22	Z22	X23	Y23	Z23	X24	Y24	Z24	X25	Y25	Z25	X26	Y26	Z26	X27	Y27	Z27	X28	Y28	Z28	X29	Y29	Z29	X30	Y30	Z30	X31	Y31	Z31	X32	Y32	Z32	X33	Y33	Z33	X34	Y34	Z34	X35	Y35	Z35	X36	Y36	Z36	X37	Y37	Z37	X38	Y38	Z38	X39	Y39	Z39	X40	Y40	Z40	X41	Y41	Z41	X42	Y42	Z42

26	0.68	0.630526	1.60185	-0.315683	0.768308	1.52813	-0.293103	0.68178	1.59028	-0.469991	0.730596	1.05697	-0.435779	0.606817	0.222643	-0.371019	0.621506	1.18672	-0.52917	0.535865	1.26763	-0.635189	0.571056	1.14973	-0.553702	0.486161	1.38028	-0.667092	0.427382	1.37483	-0.614635	0.782922	0.112101	-0.44646	0.550089	1.12759	-0.354555	0.861396	0.506773	-0.40237	0.781248	0.449671	-0.466783	0.774556	0.319183	-0.389714	0.695089	0.953079	-0.501961	0.806393	0.87796	-0.474442	0.792543	0.721992	-0.467329	0.822565	0.139828	-0.369003	0.596441	1.53425	-0.564941	0.509574	1.48612	-0.551736	0.527469	1.45322	-0.624374	0.705569	1.55777	-0.138589	0.730522	1.02656	-0.18687	0.188626	0.253537	-0.285253	0.876307	1.19938	-0.122454	0.698368	1.19618	-0.0171129	0.858601	1.1335	-0.0993775	0.629397	1.23554	-0.000411376	0.591404	1.2133	-0.0718674	0.284654	0.0706027	-0.202538	0.554579	1.12018	-0.27058	0.487827	0.432872	-0.240217	0.392048	0.374735	-0.192505	0.364053	0.27487	-0.252569	0.634056	0.903011	-0.13717	0.64581	0.759926	-0.158757	0.537658	0.681157	-0.177627	0.33875	0.0779217	-0.279863	0.661972	1.44516	-0.0547447	0.587538	1.36902	-0.0702675	0.635617	1.33034	-0.0245261
27	0.69	0.630686	1.60542	-0.317184	0.768265	1.53259	-0.294984	0.681146	1.59349	-0.471356	0.732398	1.06132	-0.436477	0.636031	0.200417	-0.367837	0.618001	1.19349	-0.530034	0.530217	1.27442	-0.635006	0.566926	1.15657	-0.553672	0.479959	1.38677	-0.665998	0.422237	1.38178	-0.612255	0.822184	0.103582	-0.438041	0.551803	1.1323	-0.354347	0.864383	0.505995	-0.401251	0.789709	0.441574	-0.465326	0.794395	0.311568	-0.386604	0.693537	0.95486	-0.50223	0.804449	0.877986	-0.474539	0.787882	0.721445	-0.466459	0.857799	0.137319	-0.361163	0.594153	1.53901	-0.565065	0.507076	1.49225	-0.550716	0.523202	1.45914	-0.623699	0.706259	1.56232	-0.140553	0.732403	1.03103	-0.18914	0.177738	0.272643	-0.280271	0.875696	1.20714	-0.12647	0.698997	1.20206	-0.018637	0.859198	1.14118	-0.102768	0.630149	1.24101	-0.00103712	0.591746	1.21859	-0.0724744	0.263593	0.0807875	-0.202616	0.556967	1.12573	-0.270197	0.481038	0.438783	-0.238389	0.384167	0.383587	-0.189991	0.352081	0.284873	-0.249856	0.635524	0.907071	-0.137319	0.646284	0.763785	-0.159262	0.537255	0.685889	-0.17616	0.318497	0.0870986	-0.278269	0.662717	1.45061	-0.0562921	0.588343	1.37469	-0.0717059	0.635978	1.33642	-0.0250887
28	0.7	0.630837	1.6079	-0.3188	0.768392	1.53574	-0.296851	0.680693	1.59548	-0.47286	0.733936	1.06476	-0.437222	0.664117	0.180021	-0.364546	0.616151	1.19875	-0.531057	0.52621	1.27938	-0.635065	0.564635	1.16164	-0.553981	0.475054	1.39133	-0.66531	0.41836	1.38653	-0.610354	0.858735	0.0971494	-0.430226	0.55329	1.13603	-0.354238	0.865327	0.503801	-0.400228	0.796655	0.432853	-0.463742	0.812199	0.304296	-0.383586	0.691947	0.954947	-0.502513	0.802338	0.876067	-0.475025	0.7825	0.719358	-0.465914	0.889939	0.136188	-0.353998	0.592419	1.54208	-0.565621	0.505186	1.49653	-0.549957	0.519778	1.4632	-0.623188	0.706806	1.56558	-0.142476	0.734176	1.03512	-0.190761	0.166444	0.291164	-0.275176	0.874308	1.21229	-0.130062	0.699171	1.20671	-0.0198639	0.858871	1.14639	-0.105343	0.630225	1.24529	-0.0015653	0.59136	1.22278	-0.0729459	0.244142	0.092565	-0.203459	0.558818	1.13067	-0.269529	0.476092	0.44344	-0.236149	0.377331	0.392078	-0.187497	0.340704	0.29502	-0.247336	0.638176	0.910065	-0.137321	0.648423	0.766812	-0.159956	0.539211	0.689064	-0.174463	0.298856	0.0988345	-0.278609	0.66335	1.4548	-0.0578783	0.58878	1.37914	-0.0730198	0.636	1.34104	-0.0258709
29	0.71	0.630934	1.60935	-0.320611	0.768597	1.53756	-0.298704	0.680466	1.59625	-0.4746	0.73502	1.06665	-0.437927	0.689974	0.16253	-0.360685	0.615979	1.20222	-0.532223	0.524001	1.28233	-0.635414	0.564177	1.16475	-0.554465	0.471635	1.39376	-0.665201	0.415932	1.38885	-0.609103	0.890263	0.092809	-0.424639	0.554374	1.13814	-0.354166	0.864485	0.500462	-0.399079	0.801665	0.424146	-0.46186	0.827572	0.297651	-0.380927	0.690674	0.953762	-0.50273	0.80004	0.872355	-0.475944	0.776514	0.715902	-0.465491	0.918116	0.135652	-0.349065	0.59136	1.54352	-0.5667	0.503942	1.49876	-0.549527	0.517299	1.46534	-0.622965	0.707169	1.56752	-0.144394	0.735866	1.03866	-0.191654	0.155837	0.309656	-0.270664	0.872274	1.21458	-0.133146	0.698668	1.20991	-0.0208796	0.857614	1.14902	-0.107156	0.629598	1.24838	-0.0020767	0.590188	1.2259	-0.0732506	0.225748	0.105841	-0.204506	0.560171	1.13432	-0.26884	0.472971	0.446882	-0.233612	0.371812	0.400221	-0.185127	0.330442	0.305282	-0.245048	0.641608	0.912147	-0.137218	0.651893	0.768908	-0.160635	0.543073	0.690799	-0.17281	0.280015	0.112147	-0.279975	0.663765	1.45751	-0.0594396	0.588708	1.38226	-0.0741512	0.63562	1.34413	-0.0268129
30	0.72	0.63093	1.60988	-0.3227	0.768736	1.53813	-0.30054	0.680478	1.59583	-0.476697	0.7357	1.0665	-0.438684	0.712162	0.148706	-0.356064	0.617477	1.20362	-0.533451	0.523731	1.28302	-0.636075	0.565527	1.16574	-0.554892	0.469937	1.39378	-0.665847	0.415072	1.38846	-0.608775	0.914637	0.090258	-0.422627	0.555062	1.13819	-0.35416	0.86232	0.496453	-0.397692	0.804374	0.416167	-0.459697	0.840038	0.291925	-0.378927	0.689748	0.951587	-0.502923	0.797361	0.867039	-0.477107	0.769821	0.711148	-0.464844	0.9414	0.134917	-0.347613	0.591007	1.54334	-0.568381	0.503387	1.49883	-0.549662	0.515896	1.46547	-0.623276	0.707271	1.56828	-0.146323	0.737478	1.04133	-0.192307	0.147334	0.328674	-0.26774	0.869689	1.21383	-0.135691	0.697176	1.21144	-0.0217555	0.855308	1.14899	-0.108282	0.6282	1.25032	-0.00268002	0.588234	1.22797	-0.0734898	0.207893	0.120861	-0.204591	0.561282	1.13611	-0.268555	0.471675	0.449188	-0.23106	0.368006	0.407965	-0.183048	0.321727	0.315608	-0.24301	0.645313	0.913465	-0.137063	0.656304	0.769935	-0.161051	0.548326	0.691093	-0.171437	0.26237	0.126008	-0.280278	0.663785	1.45865	-0.0609988	0.587992	1.3841	-0.0751839	0.63475	1.34585	-0.027815
31	0.73	0.630783	1.60949	-0.325093	0.768699	1.53751	-0.30238	0.680661	1.59423	-0.479162	0.736115	1.06438	-0.439612	0.729216	0.138435	-0.350953	0.620616	1.20279	-0.534658	0.525457	1.28121	-0.637062	0.568634	1.16448	-0.555064	0.470137	1.39114	-0.667284	0.415781	1.38519	-0.609629	0.930803	0.0886482	-0.424421	0.555468	1.1363	-0.354297	0.859339	0.49222	-0.396211	0.804591	0.409301	-0.457327	0.849026	0.28712	-0.377716	0.689022	0.948469	-0.50315	0.794118	0.860358	-0.478197	0.762511	0.705302	-0.463761	0.958826	0.133432	-0.349884	0.591282	1.54146	-0.570713	0.503521	1.49668	-0.55068	0.515673	1.46338	-0.624404	0.707016	1.56804	-0.148276	0.738996	1.0428	-0.193151	0.141863	0.348289	-0.267001	0.866563	1.21023	-0.137545	0.694584	1.21138	-0.0224916	0.851756	1.14629	-0.108766	0.625964	1.25119	-0.00344342	0.585556	1.22902	-0.0738571	0.190636	0.137875	-0.202631	0.562318	1.13579	-0.268966	0.472273	0.450402	-0.228627	0.366157	0.415331	-0.181308	0.31489	0.325888	-0.241091	0.648929	0.913974	-0.136895	0.66135	0.769763	-0.160967	0.554646	0.689852	-0.170393	0.246335	0.139875	-0.277786	0.663225	1.45843	-0.062559	0.586566	1.38481	-0.0763082	0.633293	1.34644	-0.0288425
32	0.74	0.63046	1.60809	-0.327738	0.768448	1.53575	-0.304225	0.68087	1.59141	-0.481861	0.736328	1.06078	-0.440706	0.74019	0.130767	-0.345972	0.625324	1.19981	-0.535778	0.529099	1.27676	-0.638387	0.573413	1.16098	-0.554937	0.472245	1.38567	-0.66937	0.417953	1.37907	-0.611779	0.939145	0.0864618	-0.428689	0.555659	1.13295	-0.354581	0.855887	0.48792	-0.394994	0.802419	0.403388	-0.45487	0.85412	0.282819	-0.37721	0.688332	0.944342	-0.503373	0.790348	0.852666	-0.478986	0.755202	0.698856	-0.462452	0.96973	0.130797	-0.354758	0.592038	1.53778	-0.573688	0.504284	1.49231	-0.552843	0.516677	1.45887	-0.626543	0.706316	1.56689	-0.150271	0.740371	1.04298	-0.194078	0.139583	0.368064	-0.268086	0.862823	1.20432	-0.138392	0.690983	1.20997	-0.0230244	0.846826	1.14106	-0.108598	0.622867	1.25106	-0.00435946	0.582203	1.22911	-0.0745046	0.174883	0.156767	-0.198325	0.563023	1.13354	-0.269903	0.474847	0.45055	-0.226138	0.366314	0.42244	-0.179759	0.310234	0.335972	-0.239103	0.652362	0.913392	-0.136681	0.666903	0.768358	-0.160168	0.561972	0.687017	-0.169451	0.232345	0.15377	-0.272384	0.661932	1.45731	-0.0640647	0.584446	1.38455	-0.0777033	0.631153	1.34605	-0.0299762
33	0.75	0.62994	1.60559	-0.330531	0.768	1.5329	-0.306026	0.680955	1.58732	-0.484627	0.736273	1.05613	-0.44183	0.745046	0.124596	-0.341745	0.631456	1.1949	-0.536729	0.534444	1.2697	-0.640029	0.579762	1.15535	-0.554651	0.476101	1.37738	-0.671977	0.421446	1.3703	-0.615144	0.941039	0.0819794	-0.43301	0.555585	1.12855	-0.354898	0.852078	0.483324	-0.394363	0.798335	0.397865	-0.452637	0.855392	0.278335	-0.377225	0.687527	0.939208	-0.503477	0.786411	0.844507	-0.47954	0.748774	0.692382	-0.461385	0.9742	0.126436	-0.360031	0.593147	1.53222	-0.57722	0.505597	1.4857	-0.556256	0.518901	1.45184	-0.629717	0.705132	1.56482	-0.152312	0.741506	1.04195	-0.194605	0.140246	0.387399	-0.269856	0.858388	1.19657	-0.137957	0.686462	1.20744	-0.0232924	0.840539	1.13365	-0.107742	0.618945	1.24999	-0.00536895	0.578185	1.22834	-0.0754472	0.16204	0.176873	-0.192391	0.562827	1.12981	-0.270722	0.479388	0.449736	-0.22326	0.3685	0.429348	-0.178152	0.308037	0.345723	-0.236947	0.655734	0.911376	-0.136286	0.672949	0.765841	-0.158511	0.570355	0.68265	-0.168211	0.220928	0.167918	-0.265551	0.65981	1.45563	-0.0655236	0.58172	1.38344	-0.0794381	0.62825	1.3447	-0.0313421
34	0.76	0.62925	1.60189	-0.33337	0.767385	1.52903	-0.307706	0.680839	1.58191	-0.487389	0.735832	1.05056	-0.442808	0.744324	0.119341	-0.338575	0.638812	1.18835	-0.537383	0.541241	1.26026	-0.641907	0.587583	1.14783	-0.554421	0.481476	1.36654	-0.67515	0.42617	1.3591	-0.619503	0.937792	0.0743996	-0.435218	0.555129	1.12322	-0.355077	0.847879	0.477939	-0.394332	0.793141	0.392057	-0.451124	0.85336	0.272964	-0.377523	0.686448	0.933212	-0.503382	0.782877	0.836536	-0.480191	0.743755	0.686141	-0.460807	0.972994	0.119543	-0.363337	0.594551	1.52477	-0.581161	0.507424	1.47695	-0.560849	0.522309	1.44236	-0.633769	0.703486	1.56178	-0.154372	0.7423	1.0398	-0.19444	0.143646	0.405861	-0.271099	0.853225	1.18709	-0.136247	0.68102	1.20381	-0.0232914	0.833017	1.12446	-0.106203	0.614259	1.24803	-0.00640913	0.573516	1.22676	-0.0765786	0.153287	0.197104	-0.186194	0.561501	1.12509	-0.270788	0.485797	0.448161	-0.219795	0.372858	0.435873	-0.176287	0.308473	0.355012	-0.234644	0.659187	0.907814	-0.135548	0.679478	0.762421	-0.156012	0.57976	0.676929	-0.166328	0.212657	0.182345	-0.259267	0.656883	1.4534	-0.0670724	0.578504	1.38156	-0.0814604	0.624587	1.34241	-0.0329673
